<svg width="500" height="145" viewBox="0 0 500 145" fill="none" xmlns="http://www.w3.org/2000/svg">
<path d="M44.3888 105.508C66.2955 96.1577 94.1901 96.737 117.202 99.1035L76.5205 110.181L76.0454 110.313L76.33 110.721L88.5396 128.153L56.9771 123.351L44.3888 105.508Z" fill="#F9F9FB"/>
<path d="M95.1437 89.2422C77.3341 89.3895 54.6873 89.9207 38.4884 98.7155L35.2293 90.5877C49.7905 82.0472 67.9914 79.1573 84.5373 78.885L95.1437 89.2422Z" fill="#F9F9FB"/>
<path d="M108.345 78.885C124.892 79.1568 143.089 82.0477 157.652 90.5877L154.394 98.7155C138.192 89.9219 115.55 89.3891 97.7384 89.2422L108.345 78.885Z" fill="#F9F9FB"/>
<path d="M107.464 67.6544L96.4426 78.6236L85.4181 67.6544L96.4426 60.8244L107.464 67.6544Z" fill="#F9F9FB"/>
<path d="M162.652 47.1269L142.526 74.61C134.027 72.1422 125.769 70.6022 117.305 69.89L124.612 62.5537L128.086 36.5529L96.4426 22.1718L64.7994 36.5529L68.2728 62.5537L75.5766 69.89C67.1131 70.6024 58.8552 72.142 50.3564 74.61L30.2304 47.1269L96.4426 16.8604L162.652 47.1269Z" fill="#F9F9FB"/>
<path d="M90.9169 43.5656L76.5712 44.7316L87.5015 54.2318L84.5446 66.7882L76.1851 58.4695L73.9423 41.663L95.8661 31.4822L90.9169 43.5656Z" fill="#F9F9FB"/>
<path d="M118.94 41.663L116.696 58.4695L108.337 66.7841L105.384 54.2318L116.314 44.7316L101.968 43.5656L97.0149 31.4822L118.94 41.663Z" fill="#F9F9FB"/>
<path fill-rule="evenodd" clip-rule="evenodd" d="M177.334 37.1484L192.885 73.7241L173.94 100.389H170.141L163.161 117.862H158.192L143.483 138.222L96.4426 145L49.4022 138.222L34.6932 117.862H29.7243L22.7445 100.389H18.9451L0 73.7241L15.5514 37.1484L96.4426 0L177.334 37.1484ZM20.0194 41.8331L6.88876 72.5685L21.7043 93.3232H26.6567L33.7058 110.887H37.5777L52.7845 131.836L96.4426 138.095L140.101 131.836L155.307 110.887H159.179L166.228 93.3232H171.181L185.996 72.5685L172.866 41.8331L96.4426 6.90476L20.0194 41.8331Z" fill="#F9F9FB"/>
<path d="M233.833 28.9472L255.036 28.9924L246.053 72.4518L277.742 28.9924H302.786L265.22 80.3771L281.582 136.236H259.711L243.713 84.2554L233.165 136.236L211.962 136.191L233.833 28.9472Z" fill="#F9F9FB"/>
<path d="M493.292 61.66H472.651L475.299 48.676H454.235L450.272 67.7304L487.148 91.6204L481.132 120.962L466.275 136.191H415.712L422.384 103.478H443.086L440.438 116.462H461.475L464.741 100.443L427.973 76.2096L434.614 43.8249L449.103 28.9472H500L493.292 61.66Z" fill="#F9F9FB"/>
<path fill-rule="evenodd" clip-rule="evenodd" d="M420.131 81.2709L389.48 103.816H376.28L369.613 136.191H348.91L370.781 28.9472H430.861L420.131 81.2709ZM378.816 90.6509L403.441 72.9416L408.399 48.5074H387.474L378.816 90.6509Z" fill="#F9F9FB"/>
<path fill-rule="evenodd" clip-rule="evenodd" d="M345.418 120.48L332.197 136.182L289.456 136.153L283.761 116.591L297.767 48.185L311.819 28.9469H364.086L345.418 120.48ZM318.569 48.5074L304.458 116.419H325.419L339.495 48.5074H318.569Z" fill="#F9F9FB"/>
</svg>
