<svg width="500" height="73" viewBox="0 0 500 73" fill="none" xmlns="http://www.w3.org/2000/svg">
<path d="M82.082 45.6016L54.7227 72.9629H0L54.7227 18.2402H82.082V45.6016Z" fill="white"/>
<path d="M109.445 72.9629H82.082V45.6016L127.684 0H182.405L109.445 72.9629Z" fill="white"/>
<path d="M212.721 30.8262C212.721 22.1921 220.369 15.1944 229.803 15.1943H234.225C247.966 15.1943 259.104 25.3869 259.104 37.9629V72.9629H246.885V40.2471C246.885 31.6128 239.237 24.6152 229.803 24.6152C220.369 24.6153 212.721 31.6128 212.721 40.2471V72.9629H200.644V15.1943H212.721V30.8262Z" fill="white"/>
<path d="M353.708 16.4502H368.94V26.1201H353.708V60.2725C353.708 61.8449 355.099 63.1191 356.817 63.1191H368.94V72.9629H354.071C347.202 72.9629 341.631 67.8644 341.631 61.5781V26.0488H332.848V16.4502H341.631V5.30762H353.708V16.4502Z" fill="white"/>
<path d="M453.616 30.8262C453.616 22.1921 461.264 15.1944 470.698 15.1943H475.12C488.862 15.1944 500 25.3869 500 37.9629V72.9629H487.78V40.2471C487.78 31.6128 480.132 24.6152 470.698 24.6152C461.264 24.6153 453.616 31.6128 453.616 40.2471V72.9629H441.539V0H453.616V30.8262Z" fill="white"/>
<path fill-rule="evenodd" clip-rule="evenodd" d="M298.11 13.9385C315.918 13.9385 330.357 27.1518 330.357 43.4492C330.357 59.7464 315.918 72.959 298.11 72.959C280.303 72.959 265.863 59.7464 265.863 43.4492C265.863 27.1519 280.299 13.9385 298.11 13.9385ZM298.11 24.9922C286.969 24.9922 277.937 33.2562 277.937 43.4521C277.937 53.6482 286.969 61.9131 298.11 61.9131C309.252 61.9131 318.284 53.6482 318.284 43.4521C318.284 33.2562 309.252 24.9922 298.11 24.9922Z" fill="white"/>
<path d="M405.624 13.9355C419.426 13.9355 431.116 22.1891 435.14 33.5947H421.792C418.395 28.4398 412.22 24.9883 405.162 24.9883H403.618C392.904 24.9883 384.217 32.9365 384.217 42.7412V44.1533C384.217 53.9581 392.904 61.9062 403.618 61.9062H405.162C412.223 61.9062 418.398 58.4582 421.792 53.2998H435.14C431.116 64.7055 419.426 72.959 405.624 72.959H403.155C386.027 72.9589 372.143 60.2517 372.143 44.5771V42.3174C372.143 26.6428 386.027 13.9357 403.155 13.9355H405.624Z" fill="white"/>
</svg>
