<svg width="500" height="103" viewBox="0 0 500 103" fill="none" xmlns="http://www.w3.org/2000/svg">
<path d="M76.8666 55.7917C76.8666 65.2726 84.5143 72.9583 93.9481 72.9583H102.489V77.25H93.9481C84.5143 77.25 76.8666 84.9358 76.8666 94.4167V103H72.5962V94.4167C72.5962 84.9358 64.9486 77.25 55.5148 77.25H46.974V72.9583H55.5148C64.9486 72.9583 72.5962 65.2726 72.5962 55.7917V12.875H76.8666V55.7917Z" fill="white"/>
<path d="M29.8926 8.58333C29.8926 18.0642 37.5402 25.75 46.974 25.75H55.5148V30.0417H46.974C37.5402 30.0417 29.8926 37.7274 29.8926 47.2083V90.125H25.6222V47.2083C25.6222 37.7274 17.9746 30.0417 8.54074 30.0417H0V25.75H8.54074C17.9746 25.75 25.6222 18.0642 25.6222 8.58333V0H29.8926V8.58333Z" fill="white"/>
<path d="M303.509 64.9576C304.775 64.9577 305.857 65.4238 306.732 66.3406L307.058 66.6801C307.764 67.4975 308.121 68.4745 308.121 69.5929C308.121 70.8707 307.655 71.9805 306.741 72.8997C305.862 73.7833 304.774 74.228 303.509 74.2282C302.243 74.2282 301.139 73.7851 300.223 72.908L300.21 72.8955C299.337 71.9745 298.897 70.8647 298.897 69.5929C298.897 68.321 299.339 67.2285 300.219 66.3448C301.133 65.4263 302.237 64.9576 303.509 64.9576Z" fill="white"/>
<path d="M172.216 36.014H160.018V73.3858H154.142V36.014H141.948V30.4692H172.216V36.014Z" fill="white"/>
<path fill-rule="evenodd" clip-rule="evenodd" d="M198.818 30.7751L211.663 73.3858H205.386L205.295 73.0799L202.338 62.9333H185.04L182.083 73.0799L181.991 73.3858H175.715L188.555 30.7751L188.647 30.4692H198.726L198.818 30.7751ZM186.662 57.3885H200.711L193.726 33.4909H193.651L186.662 57.3885Z" fill="white"/>
<path d="M243.995 36.014H233.231V67.841H243.995V73.3858H216.596V67.841H227.355V36.014H216.596V30.4692H243.995V36.014Z" fill="white"/>
<path d="M259.258 67.841H281.139V73.3858H253.382V30.4692H259.258V67.841Z" fill="white"/>
<path d="M355.25 36.014H343.051V73.3858H337.176V36.014H324.982V30.4692H355.25V36.014Z" fill="white"/>
<path fill-rule="evenodd" clip-rule="evenodd" d="M378.457 30.4692C380.644 30.4693 382.568 30.7964 384.22 31.4583C385.859 32.0758 387.231 32.9269 388.316 34.0148C389.438 35.1008 390.273 36.3787 390.814 37.8413C391.39 39.2527 391.677 40.7461 391.677 42.3173V44.1195C391.677 45.7654 391.212 47.3983 390.305 49.0147C389.459 50.59 388.152 51.8015 386.414 52.6693V52.7783C387.524 53.0239 388.434 53.5204 389.116 54.2871C389.886 55.1517 390.242 56.3488 390.242 57.816V73.3858H384.366V58.8973C384.366 57.9177 384.138 57.2327 383.749 56.7766C383.391 56.3569 382.712 56.085 381.564 56.085H368.957V73.3858H363.081V30.4692H378.457ZM368.957 50.5402H377.857C380.639 50.5402 382.61 49.9454 383.854 48.8429C385.133 47.7032 385.801 46.0325 385.801 43.7591V42.6778C385.801 40.6596 385.141 39.0778 383.845 37.8874L383.837 37.879C382.593 36.6661 380.63 36.014 377.857 36.014H368.957V50.5402ZM386.03 45.7289C386.051 45.629 386.08 45.5298 386.097 45.4271L386.11 45.3265C386.088 45.4635 386.058 45.5967 386.03 45.7289ZM385.409 39.1908C385.517 39.3895 385.614 39.5951 385.701 39.8069C385.527 39.3816 385.312 38.981 385.05 38.6082L385.409 39.1908Z" fill="white"/>
<path fill-rule="evenodd" clip-rule="evenodd" d="M418.458 30.7751L431.303 73.3858H425.027L424.935 73.0799L421.978 62.9333H404.68L401.723 73.0799L401.631 73.3858H395.355L408.195 30.7751L408.287 30.4692H418.367L418.458 30.7751ZM406.302 57.3885H420.352L413.367 33.4909H413.292L406.302 57.3885Z" fill="white"/>
<path fill-rule="evenodd" clip-rule="evenodd" d="M449.756 30.4692C454.994 30.4693 458.916 31.7248 461.421 34.3249C463.923 36.9239 465.128 41.0242 465.128 46.521V57.3382C465.128 62.8343 463.923 66.9312 461.421 69.53C458.916 72.1312 454.995 73.3857 449.756 73.3858H435.577V67.7823H439.164V36.014H435.577V30.4692H449.756ZM445.04 67.841H449.039C450.846 67.841 452.379 67.6645 453.647 67.3171C454.943 66.9725 455.996 66.4027 456.813 65.6197C457.625 64.8012 458.228 63.7112 458.61 62.3298L458.614 62.3172C459.036 60.9303 459.252 59.1547 459.252 56.9777V46.8814C459.252 44.7045 459.035 42.9289 458.614 41.542L458.285 40.5487C457.915 39.6281 457.42 38.8847 456.813 38.3023L456.808 38.2939C455.992 37.473 454.943 36.8857 453.651 36.542C452.383 36.1946 450.846 36.014 449.039 36.014H445.04V67.841ZM460.649 34.1741L460.282 33.8555C460.259 33.8367 460.235 33.8198 460.211 33.8011C460.361 33.9219 460.508 34.0457 460.649 34.1741Z" fill="white"/>
<path d="M499.641 36.014H479.315V49.0985H499.283V54.6433H479.315V67.841H500V73.3858H473.439V30.4692H499.641V36.014Z" fill="white"/>
</svg>
